<?xml version="1.0" encoding="utf-8"?>
<!-- Generator: Adobe Illustrator 23.0.3, SVG Export Plug-In . SVG Version: 6.00 Build 0)  -->
<svg version="1.1" xmlns="http://www.w3.org/2000/svg" xmlns:xlink="http://www.w3.org/1999/xlink" x="0px" y="0px"
	 viewBox="0 0 1280 720" style="enable-background:new 0 0 1280 720;" xml:space="preserve">
<style type="text/css">
	.st0{fill:none;stroke:#969696;stroke-width:0.5;stroke-miterlimit:10;}
	.st1{fill:#707070;}
	.st2{font-family:'ArialMT';}
	.st3{font-size:18px;}
	.st4{fill:#EA0303;}
	.st5{font-family:'ARHeiB5-Light-B5pc-H';}
	.st6{font-size:17.0895px;glyph-orientation-vertical:0;writing-mode:tb;}
	.st7{font-size:17.0895px;}
	.st8{fill:#353535;}
	.st9{fill:none;stroke:#EA0303;stroke-width:3;stroke-miterlimit:10;}
	.st10{fill:none;stroke:#707070;stroke-width:3;stroke-miterlimit:10;}
	.st11{font-family:'Arial-BoldMT';}
	.st12{font-size:21px;}
	.st13{fill:none;stroke:#EA0303;stroke-width:0.5;stroke-miterlimit:10;}
	.st14{fill:none;stroke:#EA0303;stroke-width:0.5;stroke-miterlimit:10;stroke-dasharray:4.9579,2.9747,4.9579,2.9747;}
	
		.st15{fill:none;stroke:#EA0303;stroke-width:0.5;stroke-miterlimit:10;stroke-dasharray:4.9579,2.9747,4.9579,2.9747,4.9579,2.9747;}
	.st16{fill:none;stroke:#EA0303;stroke-width:0.5;stroke-miterlimit:10;stroke-dasharray:5,3,5,3,5,3;}
</style>
<g id="heat_x5F_island_x5F_chart1_x5F_background">
	<line class="st0" x1="155.77" y1="600.36" x2="1144.76" y2="600.36"/>
	<line class="st0" x1="168.79" y1="600" x2="168.79" y2="611.34"/>
	<line class="st0" x1="259.59" y1="135.5" x2="259.59" y2="611.34"/>
	<line class="st0" x1="389.66" y1="135.5" x2="389.66" y2="611.34"/>
	<line class="st0" x1="519.73" y1="135.5" x2="519.73" y2="611.34"/>
	<line class="st0" x1="650.75" y1="135.5" x2="650.75" y2="611.34"/>
	<line class="st0" x1="780.82" y1="135.5" x2="780.82" y2="611.34"/>
	<line class="st0" x1="910.89" y1="135.5" x2="910.89" y2="611.34"/>
	<line class="st0" x1="1040.96" y1="135.5" x2="1040.96" y2="611.34"/>
	<line class="st0" x1="1144.45" y1="135.5" x2="1144.45" y2="611.34"/>
	<text transform="matrix(1.046 0 0 1 119.3789 603.7227)" class="st1 st2 st3">20</text>
	<text transform="matrix(1.046 0 0 1 119.3789 510.6563)" class="st1 st2 st3">21</text>
	<text transform="matrix(1.046 0 0 1 119.3789 417.5898)" class="st1 st2 st3">22</text>
	<text transform="matrix(1.046 0 0 1 119.3789 324.5234)" class="st1 st2 st3">23</text>
	<text transform="matrix(1.046 0 0 1 119.3789 231.4561)" class="st1 st2 st3">24</text>
	<text transform="matrix(1.046 0 0 1 119.3789 138.3916)" class="st1 st2 st3">25</text>
	<line class="st0" x1="155.77" y1="611.36" x2="155.77" y2="135"/>
	<line class="st0" x1="145.03" y1="507.3" x2="1144.76" y2="507.3"/>
	<line class="st0" x1="145.03" y1="414.23" x2="1144.76" y2="414.23"/>
	<line class="st0" x1="145.03" y1="321.16" x2="1144.76" y2="321.16"/>
	<line class="st0" x1="145.03" y1="228.1" x2="1144.76" y2="228.1"/>
	<line class="st0" x1="145.03" y1="135.03" x2="1144.76" y2="135.03"/>
	<g>
		<text transform="matrix(1.046 0 0 1 143.5879 630.3486)" class="st1 st2 st3">1943</text>
	</g>
	<g>
		<text transform="matrix(1.046 0 0 1 233.7832 630.3486)" class="st1 st2 st3">1950</text>
	</g>
	<g>
		<text transform="matrix(1.046 0 0 1 363.8535 630.3486)" class="st1 st2 st3">1960</text>
	</g>
	<g>
		<text transform="matrix(1.046 0 0 1 494.873 630.3486)" class="st1 st2 st3">1970</text>
	</g>
	<g>
		<text transform="matrix(1.046 0 0 1 626.8418 630.3486)" class="st1 st2 st3">1980</text>
	</g>
	<g>
		<text transform="matrix(1.046 0 0 1 691.4023 630.3486)" class="st4 st2 st3">1985</text>
	</g>
	<g>
		<text transform="matrix(1.046 0 0 1 755.9629 630.3486)" class="st1 st2 st3">1990</text>
	</g>
	<g>
		<text transform="matrix(1.046 0 0 1 885.084 630.3486)" class="st1 st2 st3">2000</text>
	</g>
	<g>
		<text transform="matrix(1.046 0 0 1 1018.0029 630.3486)" class="st1 st2 st3">2010</text>
	</g>
	<g>
		<text transform="matrix(1.046 0 0 1 1120.54 630.3486)" class="st1 st2 st3">2018</text>
	</g>
	<text transform="matrix(1 0 0 1.0533 94.4434 298.2559)" class="st1 st5 st6">全年平均溫度</text>
	<text transform="matrix(0.9494 0 0 1 84 432.0693)" class="st1 st5 st3">℃</text>
	<g>
		<text transform="matrix(0 1.0533 -1 0 87.9561 407.1396)" class="st1 st5 st7">(</text>
	</g>
	<g>
		<text transform="matrix(0 -1.0533 -1 0 87.9561 444.1396)" class="st1 st5 st7">(</text>
	</g>
	<g>
		<text transform="matrix(0.9494 0 0 1 1162.4492 631.7441)" class="st1 st5 st3">(年)</text>
	</g>
	<rect x="1093.88" y="100.58" class="st1" width="11.12" height="10.42"/>
	<rect x="1016.88" y="100.58" class="st4" width="11.12" height="10.42"/>
	<g>
		<text transform="matrix(1.1186 0 0 1.0533 1035.001 111.4033)" class="st8 st5 st7">台北</text>
	</g>
	<g>
		<text transform="matrix(1.1186 0 0 1.0533 1109.9473 111.4033)" class="st8 st5 st7">淡水</text>
	</g>
</g>
<g id="heat_x5F_island_x5F_chart1_x5F_taipei">
	<polyline class="st9" points="172.08,408.5 185.38,377.5 198.67,435.5 211.01,360.5 224.3,435.5 237.59,388.5 249.94,387.5 
		263.23,438.5 288.86,376.5 303.1,370.5 315.45,346.5 327.79,437.5 341.08,411.5 353.42,414.5 366.71,384.5 380.01,365.5 
		393.3,376.5 405.64,362.5 418.93,417.5 432.22,415.5 444.57,361.5 457.86,390.5 471.15,347.5 483.49,401.5 495.84,434.5 
		509.13,417.5 522.42,403.5 534.76,402.5 548.05,405.5 561.35,366.5 573.69,394.5 586.98,385.5 600.27,402.5 612.61,332.5 
		625.91,381.5 639.2,402.5 651.54,370.5 663.88,370.5 677.17,373.5 690.47,350.5 704.71,419.5 717.05,358.5 730.34,376.5 
		742.68,318.5 755.03,316.5 768.32,315.5 780.66,274.5 793.95,274.5 807.24,386.5 820.54,350.5 832.88,305.5 846.17,383.5 
		858.51,369.5 872.75,365.5 885.1,272.5 897.44,321.5 910.73,301.5 924.02,291.5 936.37,246.5 962.95,312.5 976.24,296.5 
		988.58,248.5 1001.88,268.5 1014.22,306.5 1027.51,280.5 1039.85,297.5 1053.14,343.5 1066.44,304.5 1078.78,286.5 1092.07,276.5 
		1105.36,249.5 1117.7,231.5 1131,239.5 1144.29,237.5 	"/>
</g>
<g id="heat_x5F_island_x5F_chart1_x5F_tamsui">
	<polyline class="st10" points="173.03,403.5 186.32,407.5 197.72,438.5 211.01,354.5 224.3,427.5 237.59,378.5 249.94,377.5 
		263.23,424.5 288.86,370.5 302.15,375.5 314.5,347.5 327.79,422.5 341.08,402.5 353.42,405.5 366.71,381.5 380.01,363.5 
		392.35,362.5 404.69,350.5 418.93,417.5 431.27,411.5 444.57,377.5 456.91,394.5 469.25,369.5 483.49,412.5 496.78,441.5 
		509.13,436.5 522.42,415.5 534.76,409.5 548.05,417.5 561.35,383.5 574.64,411.5 586.98,406.5 600.27,425.5 612.61,349.5 
		625.91,398.5 639.2,401.5 652.49,361.5 664.83,365.5 677.17,374.5 690.47,352.5 703.76,417.5 716.1,416.5 729.39,455.5 
		742.68,422.5 755.03,441.5 768.32,421.5 781.61,393.5 793.95,389.5 807.24,465.5 820.54,401.5 832.88,385.5 846.17,449.5 
		858.51,449.5 871.81,429.5 885.1,365.5 898.39,384.5 910.73,374.5 924.02,384.5 936.37,353.5 949.66,379.5 962.95,413.5 
		975.29,417.5 988.58,364.5 1001.88,368.5 1014.22,384.5 1027.51,353.5 1039.85,388.5 1053.14,443.5 1066.44,406.5 1078.78,350.5 
		1092.07,343.5 1104.41,314.5 1117.7,325.5 1131,306.5 1144.29,317.5 	"/>
</g>
<g id="heat_x5F_island_x5F_chart1_x5F_1985">
	<g>
		<text transform="matrix(1.1018 0 0 1 668.9922 454.4883)" class="st1 st11 st12">22.0</text>
	</g>
	<circle class="st1" cx="716.05" cy="414.5" r="6"/>
	<g>
		<text transform="matrix(1.1018 0 0 1 668.9922 335.4883)" class="st4 st11 st12">22.6</text>
	</g>
	<circle class="st4" cx="717.1" cy="359.5" r="6"/>
</g>
<g id="heat_x5F_island_x5F_chart1_x5F_1985line">
	<g>
		<g>
			<line class="st13" x1="715.61" y1="135.5" x2="715.61" y2="138"/>
			<line class="st14" x1="715.61" y1="140.97" x2="715.61" y2="155.35"/>
			<line class="st15" x1="715.61" y1="156.84" x2="715.61" y2="607.51"/>
			<line class="st13" x1="715.61" y1="609" x2="715.61" y2="611.5"/>
		</g>
	</g>
</g>
<g id="heat_x5F_island_x5F_chart1_x5F_2018">
	<circle class="st1" cx="1144.76" cy="318" r="6"/>
	<text transform="matrix(1.046 0 0 1 1152.1611 321.9883)" class="st1 st11 st12">23.0</text>
	<circle class="st4" cx="1143.81" cy="237" r="6"/>
	<g>
		<text transform="matrix(1.1018 0 0 1 1152.1611 242.9883)" class="st4 st11 st12">23.9</text>
	</g>
</g>
<g id="heat_x5F_island_x5F_chart1_x5F_dot">
	<circle class="st4" cx="650.88" cy="600" r="6"/>
</g>
<g id="heat_x5F_island_x5F_chart1_x5F_line">
	<line class="st16" x1="650.88" y1="135.5" x2="650.88" y2="611.34"/>
</g>
<g id="heat_x5F_island_x5F_chart1_x5F_1980">
	<g>
		<text transform="matrix(1.1018 0 0 1 646.2217 408.9883)" class="st4 st11 st12">22.5</text>
	</g>
	<text transform="matrix(1.046 0 0 1 648.4385 346.9883)" class="st1 st11 st12">22.6</text>
	<circle class="st4" cx="653" cy="375" r="6"/>
	<circle class="st1" cx="653" cy="360" r="6"/>
</g>
<g id="heat_x5F_island_x5F_chart1_x5F_1986">
	<g>
		<text transform="matrix(1.1018 0 0 1 739.1611 384.9883)" class="st4 st11 st12">22.4</text>
	</g>
	<text transform="matrix(1.046 0 0 1 739.1611 463.9883)" class="st1 st11 st12">21.6</text>
	<circle class="st4" cx="729.81" cy="379" r="6"/>
	<circle class="st1" cx="728.76" cy="457" r="6"/>
</g>
<g id="heat_x5F_island_x5F_chart1_x5F_1987">
	<g>
		<text transform="matrix(1.1018 0 0 1 718.5918 303.9883)" class="st4 st11 st12">23.0</text>
	</g>
	<text transform="matrix(1.046 0 0 1 745.7305 460.9883)" class="st1 st11 st12">21.9</text>
	<circle class="st4" cx="742.81" cy="317" r="6"/>
	<circle class="st1" cx="743" cy="421" r="6"/>
</g>
</svg>
