<?xml version="1.0" encoding="utf-8"?>
<!-- Generator: Adobe Illustrator 23.0.3, SVG Export Plug-In . SVG Version: 6.00 Build 0)  -->
<svg version="1.1" xmlns="http://www.w3.org/2000/svg" xmlns:xlink="http://www.w3.org/1999/xlink" x="0px" y="0px"
	 viewBox="0 0 520 390" style="enable-background:new 0 0 520 390;" xml:space="preserve">
<style type="text/css">
	.st0{fill:#707070;}
	.st1{font-family:'ArialMT';}
	.st2{font-size:16px;}
	.st3{fill:none;stroke:#707070;stroke-width:0.5;stroke-miterlimit:10;}
	.st4{font-size:14px;}
	.st5{font-family:'ARHeiB5-Light-B5pc-H';}
	.st6{fill:#EA0303;}
	.st7{fill:#D2D4D6;}
</style>
<g id="heat_x5F_island_x5F_chart4_x5F_background_x5F_mob">
	<g>
		<text transform="matrix(1.0052 0 0 1 27.9316 343.2026)" class="st0 st1 st2">0</text>
	</g>
	<g>
		<text transform="matrix(1.0052 0 0 1 18.9863 279.3052)" class="st0 st1 st2">10</text>
	</g>
	<g>
		<text transform="matrix(1.0052 0 0 1 18.9863 215.4072)" class="st0 st1 st2">20</text>
	</g>
	<g>
		<text transform="matrix(1.0052 0 0 1 18.9863 151.5083)" class="st0 st1 st2">30</text>
	</g>
	<g>
		<text transform="matrix(1.0052 0 0 1 18.9863 87.6113)" class="st0 st1 st2">40</text>
	</g>
	<g>
		<text transform="matrix(1.0052 0 0 1 18.9863 23.7134)" class="st0 st1 st2">50</text>
	</g>
	<line class="st3" x1="46.19" y1="342.99" x2="46.19" y2="18.7"/>
	<g>
		<g>
			<line class="st3" x1="46.19" y1="342.99" x2="40.31" y2="342.99"/>
			<line class="st3" x1="46.19" y1="278.13" x2="40.31" y2="278.13"/>
			<line class="st3" x1="46.19" y1="213.27" x2="40.31" y2="213.27"/>
			<line class="st3" x1="46.19" y1="148.42" x2="40.31" y2="148.42"/>
			<line class="st3" x1="46.19" y1="83.56" x2="40.31" y2="83.56"/>
			<line class="st3" x1="46.19" y1="18.7" x2="40.31" y2="18.7"/>
		</g>
	</g>
	<g>
		<text transform="matrix(1.0052 0 0 1 60.9912 358.4829)"><tspan x="0" y="0" class="st0 st1 st4">O3</tspan><tspan x="-7" y="16.8" class="st0 st1 st4">(ppb)</tspan></text>
	</g>
	<g>
		<text transform="matrix(1.0052 0 0 1 139.3369 358.4829)"><tspan x="0" y="0" class="st0 st1 st4">PM10</tspan><tspan x="-5.97" y="16.8" class="st0 st1 st4">(μg/m3)</tspan></text>
	</g>
	<g>
		<text transform="matrix(1.0052 0 0 1 323.8213 358.4829)"><tspan x="0" y="0" class="st0 st1 st4">CO</tspan><tspan x="-7.78" y="16.8" class="st0 st1 st4">(ppm)</tspan></text>
	</g>
	<g>
		<text transform="matrix(1.0052 0 0 1 389.4902 358.4829)"><tspan x="0" y="0" class="st0 st1 st4">SO2</tspan><tspan x="-2.33" y="16.8" class="st0 st1 st4">(ppb)</tspan></text>
	</g>
	<g>
		<text transform="matrix(1.0052 0 0 1 232.7861 358.4829)"><tspan x="0" y="0" class="st0 st1 st4">PM2.5</tspan><tspan x="-4.03" y="16.8" class="st0 st1 st4">(μg/m3)</tspan></text>
	</g>
	<g>
		<text transform="matrix(1.0052 0 0 1 463.8242 358.4829)"><tspan x="0" y="0" class="st0 st1 st4">NO2</tspan><tspan x="-1.95" y="16.8" class="st0 st1 st4">(ppb)</tspan></text>
	</g>
	<line class="st3" x1="46.19" y1="343.61" x2="504.5" y2="343.61"/>
	<g>
		<text transform="matrix(1.046 0 0 1 382.2158 19.8647)" class="st0 st5 st2">熱浪</text>
	</g>
	<g>
		<text transform="matrix(1.046 0 0 1 454.0771 19.8647)" class="st0 st5 st2">非熱浪</text>
	</g>
	<rect x="368" y="9.08" class="st6" width="10.06" height="9.42"/>
	<rect x="439" y="9.08" class="st7" width="10.06" height="9.42"/>
</g>
<g id="heat_x5F_island_x5F_chart4_x5F_mob">
	<g>
		<rect x="254.76" y="266.84" class="st7" width="9.58" height="76.15"/>
		<rect x="241.19" y="258.84" class="st6" width="9.58" height="84.14"/>
	</g>
	<g>
		<rect x="161.2" y="174.94" class="st7" width="9.58" height="167.81"/>
		<rect x="147" y="139.78" class="st6" width="9.58" height="203.21"/>
	</g>
	<g>
		<rect x="468.7" y="234.07" class="st6" width="9.58" height="108.92"/>
		<rect x="482.11" y="228.48" class="st7" width="9.58" height="114.51"/>
	</g>
	<g>
		<rect x="74.34" y="190.12" class="st7" width="9.58" height="152.87"/>
		<rect x="60.13" y="81.49" class="st6" width="9.58" height="261.5"/>
	</g>
	<g>
		<rect x="406.6" y="321.97" class="st7" width="9.58" height="21.02"/>
		<rect x="393.67" y="315.58" class="st6" width="9.58" height="27.41"/>
	</g>
	<g>
		<rect x="335.68" y="339.55" class="st7" width="9.58" height="3.44"/>
		<rect x="322.75" y="339.91" class="st6" width="9.58" height="3.08"/>
	</g>
</g>
</svg>
