<?xml version="1.0" encoding="utf-8"?>
<!-- Generator: Adobe Illustrator 23.0.3, SVG Export Plug-In . SVG Version: 6.00 Build 0)  -->
<svg version="1.1" xmlns="http://www.w3.org/2000/svg" xmlns:xlink="http://www.w3.org/1999/xlink" x="0px" y="0px"
	 viewBox="0 0 1280 720" style="enable-background:new 0 0 1280 720;" xml:space="preserve">
<style type="text/css">
	.st0{fill:#F4F4F4;}
	.st1{fill:#F2F2F2;}
	.st2{fill:#707070;}
	.st3{font-family:'MicrosoftJhengHeiRegular';}
	.st4{font-size:18px;}
	.st5{fill:none;stroke:#969696;stroke-width:0.5;stroke-miterlimit:10;}
	.st6{font-family:'ArialMT';}
	.st7{fill:#00269A;}
	.st8{fill:#FFA300;}
	.st9{clip-path:url(#SVGID_2_);}
	.st10{fill:none;stroke:#282828;stroke-miterlimit:10;}
	.st11{fill:none;stroke:#000000;stroke-width:0.5;stroke-miterlimit:10;}
	.st12{clip-path:url(#SVGID_4_);}
	.st13{fill:none;stroke:#C9C9C9;stroke-miterlimit:10;}
	.st14{fill:none;stroke:#707070;stroke-width:3;stroke-miterlimit:10;}
	.st15{fill:none;stroke:#EA0303;stroke-width:3;stroke-miterlimit:10;}
	.st16{fill:#EA0303;}
	.st17{font-size:18.3414px;}
	.st18{fill:#C9C9C9;}
	.st19{font-family:'Arial-BoldMT';}
	.st20{fill:none;stroke:#000000;stroke-miterlimit:10;}
	.st21{fill:none;stroke:#000000;stroke-miterlimit:10;stroke-dasharray:3.5556,2.3704,3.5556,2.3704;}
	.st22{fill:none;stroke:#000000;stroke-miterlimit:10;stroke-dasharray:3.5556,2.3704,3.5556,2.3704,3.5556,2.3704;}
	.st23{fill:#FFFFFF;}
	.st24{font-family:'MicrosoftJhengHeiBold';}
	.st25{font-size:19px;}
	.st26{fill:none;stroke:#000000;stroke-miterlimit:10;stroke-dasharray:3,2,3,2,3,2;}
</style>
<g id="heat_x5F_island_x5F_chart3_x5F_background_x5F_05">
	<rect x="128" y="99" class="st0" width="208" height="440"/>
</g>
<g id="heat_x5F_island_x5F_chart3_x5F_background_x5F_12">
	<rect x="584" y="98.5" class="st1" width="125" height="441"/>
</g>
<g id="heat_x5F_island_x5F_chart3_x5F_background">
	<g>
		<text transform="matrix(1.046 0 0 1 65.0898 540.3691)" class="st2 st3 st4">(℃)</text>
	</g>
	<g>
		<g>
			<line class="st5" x1="128" y1="451.21" x2="1082" y2="451.21"/>
			<line class="st5" x1="128" y1="363.09" x2="1082.14" y2="363.09"/>
			<line class="st5" x1="128" y1="274.97" x2="1082.14" y2="274.97"/>
			<line class="st5" x1="128" y1="186.86" x2="1082.14" y2="186.86"/>
			<line class="st5" x1="128" y1="98.74" x2="1082.14" y2="98.74"/>
		</g>
	</g>
	<line class="st5" x1="128" y1="539.32" x2="1082" y2="539.32"/>
	<line class="st5" x1="127.89" y1="98.67" x2="127.89" y2="560.66"/>
	<line class="st5" x1="169.38" y1="539.5" x2="169.38" y2="560.66"/>
	<line class="st5" x1="210.88" y1="539.5" x2="210.88" y2="560.66"/>
	<line class="st5" x1="252.38" y1="539.5" x2="252.38" y2="560.66"/>
	<line class="st5" x1="293.87" y1="539.5" x2="293.87" y2="560.66"/>
	<line class="st5" x1="376.86" y1="539.5" x2="376.86" y2="560.66"/>
	<line class="st5" x1="418.36" y1="539.5" x2="418.36" y2="560.66"/>
	<line class="st5" x1="459.86" y1="539.5" x2="459.86" y2="560.66"/>
	<line class="st5" x1="501.35" y1="539.5" x2="501.35" y2="560.66"/>
	<line class="st5" x1="542.85" y1="539.5" x2="542.85" y2="560.66"/>
	<line class="st5" x1="584.35" y1="539.52" x2="584.35" y2="560.66"/>
	<line class="st5" x1="667.34" y1="539.5" x2="667.34" y2="560.66"/>
	<line class="st5" x1="708.83" y1="539.5" x2="708.83" y2="560.66"/>
	<line class="st5" x1="750.33" y1="539.5" x2="750.33" y2="560.66"/>
	<line class="st5" x1="791.83" y1="539.5" x2="791.83" y2="560.66"/>
	<line class="st5" x1="833.32" y1="539.5" x2="833.32" y2="560.66"/>
	<line class="st5" x1="874.82" y1="539.5" x2="874.82" y2="560.66"/>
	<line class="st5" x1="916.31" y1="539.5" x2="916.31" y2="560.66"/>
	<line class="st5" x1="957.81" y1="539.5" x2="957.81" y2="560.66"/>
	<line class="st5" x1="999.31" y1="539.5" x2="999.31" y2="560.66"/>
	<line class="st5" x1="1040.8" y1="539.5" x2="1040.8" y2="560.66"/>
	<line class="st5" x1="1082.3" y1="98.07" x2="1082.3" y2="560.66"/>
	<g>
		<text transform="matrix(1.046 0 0 1 101.5996 540.1455)" class="st2 st6 st4">20</text>
	</g>
	<g>
		<text transform="matrix(1.046 0 0 1 101.5996 452.8438)" class="st2 st6 st4">23</text>
	</g>
	<g>
		<text transform="matrix(1.046 0 0 1 101.5996 365.542)" class="st2 st6 st4">26</text>
	</g>
	<g>
		<text transform="matrix(1.046 0 0 1 101.5996 278.2412)" class="st2 st6 st4">29</text>
	</g>
	<g>
		<text transform="matrix(1.046 0 0 1 101.5996 190.9404)" class="st2 st6 st4">32</text>
	</g>
	<g>
		<text transform="matrix(1.046 0 0 1 101.5996 103.6396)" class="st2 st6 st4">35</text>
	</g>
	<line class="st5" x1="335.87" y1="539.5" x2="335.87" y2="560.66"/>
	<line class="st5" x1="625.84" y1="540" x2="625.84" y2="560.66"/>
	<g>
		<text transform="matrix(1.046 0 0 1 1100.627 580.0898)" class="st2 st3 st4">(小時)</text>
	</g>
	<g>
		<text transform="matrix(1.046 0 0 1 164.2146 580.5986)" class="st2 st6 st4">1</text>
	</g>
	<g>
		<text transform="matrix(1.046 0 0 1 122.6455 580.5986)" class="st2 st6 st4">0</text>
	</g>
	<g>
		<text transform="matrix(1.046 0 0 1 205.7838 580.5986)" class="st2 st6 st4">2</text>
	</g>
	<g>
		<text transform="matrix(1.046 0 0 1 247.353 580.5986)" class="st2 st6 st4">3</text>
	</g>
	<g>
		<text transform="matrix(1.046 0 0 1 288.9221 580.5986)" class="st2 st6 st4">4</text>
	</g>
	<g>
		<text transform="matrix(1.046 0 0 1 330.4912 580.5986)" class="st6 st4">5</text>
	</g>
	<g>
		<text transform="matrix(1.046 0 0 1 372.0604 580.5986)" class="st2 st6 st4">6</text>
	</g>
	<g>
		<text transform="matrix(1.046 0 0 1 413.6295 580.5986)" class="st2 st6 st4">7</text>
	</g>
	<g>
		<text transform="matrix(1.046 0 0 1 455.1987 580.5986)" class="st2 st6 st4">8</text>
	</g>
	<g>
		<text transform="matrix(1.046 0 0 1 496.7678 580.5986)" class="st2 st6 st4">9</text>
	</g>
	<g>
		<text transform="matrix(1.046 0 0 1 533.1011 580.5986)" class="st2 st6 st4">10</text>
	</g>
	<g>
		<text transform="matrix(1.046 0 0 1 573.9716 580.5986)" class="st2 st6 st4">11</text>
	</g>
	<g>
		<text transform="matrix(1.046 0 0 1 616.2394 580.5986)" class="st6 st4">12</text>
	</g>
	<g>
		<text transform="matrix(1.046 0 0 1 657.8085 580.5986)" class="st2 st6 st4">13</text>
	</g>
	<g>
		<text transform="matrix(1.046 0 0 1 699.3777 580.5986)" class="st2 st6 st4">14</text>
	</g>
	<g>
		<text transform="matrix(1.046 0 0 1 740.9468 580.5986)" class="st2 st6 st4">15</text>
	</g>
	<g>
		<text transform="matrix(1.046 0 0 1 782.516 580.5986)" class="st2 st6 st4">16</text>
	</g>
	<g>
		<text transform="matrix(1.046 0 0 1 824.0851 580.5986)" class="st2 st6 st4">17</text>
	</g>
	<g>
		<text transform="matrix(1.046 0 0 1 865.6543 580.5986)" class="st6 st4">18</text>
	</g>
	<g>
		<text transform="matrix(1.046 0 0 1 907.2234 580.5986)" class="st2 st6 st4">19</text>
	</g>
	<g>
		<text transform="matrix(1.046 0 0 1 948.7925 580.5986)" class="st2 st6 st4">20</text>
	</g>
	<g>
		<text transform="matrix(1.046 0 0 1 990.3617 580.5986)" class="st2 st6 st4">21</text>
	</g>
	<g>
		<text transform="matrix(1.046 0 0 1 1031.9309 580.5986)" class="st2 st6 st4">22</text>
	</g>
	<g>
		<text transform="matrix(1.046 0 0 1 1073.5 580.5986)" class="st2 st6 st4">23</text>
	</g>
	<path class="st7" d="M130.47,611.58c-2.62-1.27-4.22-4.12-3.94-7.02c0.32-3.32,2.71-5.71,5.59-6.34c0.39-0.09,0.47-0.61,0.11-0.78
		c-2.26-1.04-5-1.39-8.33-0.31c-2.24,0.73-4.23,2.14-5.53,4.11c-4.43,6.71-0.98,15.07,6.05,17.15c5.75,1.7,11.77-1.42,13.75-7.01
		c0.1-0.28-0.21-0.52-0.46-0.35C135.69,612.45,132.97,612.8,130.47,611.58z"/>
	<path class="st7" d="M1085.47,611.58c-2.62-1.27-4.22-4.12-3.94-7.02c0.32-3.32,2.71-5.71,5.59-6.34c0.39-0.09,0.47-0.61,0.11-0.78
		c-2.26-1.04-5-1.39-8.33-0.31c-2.24,0.73-4.23,2.14-5.53,4.11c-4.43,6.71-0.98,15.07,6.05,17.15c5.75,1.7,11.77-1.42,13.75-7.01
		c0.1-0.28-0.21-0.52-0.46-0.35C1090.69,612.45,1087.97,612.8,1085.47,611.58z"/>
	<g>
		<circle class="st8" cx="626.26" cy="608.63" r="6.3"/>
		<path class="st8" d="M626.27,599.87h-0.03c-0.38,0-0.69-0.31-0.69-0.69v-6.33c0-0.38,0.31-0.69,0.69-0.69h0.03
			c0.38,0,0.69,0.31,0.69,0.69v6.33C626.96,599.56,626.65,599.87,626.27,599.87z"/>
		<path class="st8" d="M619.88,602.65l-0.02,0.02c-0.27,0.27-0.7,0.27-0.97,0l-4.48-4.48c-0.27-0.27-0.27-0.7,0-0.97l0.02-0.02
			c0.27-0.27,0.7-0.27,0.97,0l4.48,4.48C620.15,601.95,620.15,602.39,619.88,602.65z"/>
		<path class="st8" d="M617.32,609.14v0.03c0,0.38-0.31,0.69-0.69,0.69h-6.33c-0.38,0-0.69-0.31-0.69-0.69v-0.03
			c0-0.38,0.31-0.69,0.69-0.69h6.33C617.02,608.45,617.32,608.76,617.32,609.14z"/>
		<path class="st8" d="M620.11,615.53l0.02,0.02c0.27,0.27,0.27,0.7,0,0.97l-4.48,4.48c-0.27,0.27-0.7,0.27-0.97,0l-0.02-0.02
			c-0.27-0.27-0.27-0.7,0-0.97l4.48-4.48C619.4,615.26,619.84,615.26,620.11,615.53z"/>
		<path class="st8" d="M626.59,618.08h0.03c0.38,0,0.69,0.31,0.69,0.69v6.33c0,0.38-0.31,0.69-0.69,0.69h-0.03
			c-0.38,0-0.69-0.31-0.69-0.69v-6.33C625.91,618.39,626.22,618.08,626.59,618.08z"/>
		<path class="st8" d="M632.99,615.3l0.02-0.02c0.27-0.27,0.7-0.27,0.97,0l4.48,4.48c0.27,0.27,0.27,0.7,0,0.97l-0.02,0.02
			c-0.27,0.27-0.7,0.27-0.97,0l-4.48-4.48C632.72,616.01,632.72,615.57,632.99,615.3z"/>
		<path class="st8" d="M635.54,608.82v-0.03c0-0.38,0.31-0.69,0.69-0.69h6.33c0.38,0,0.69,0.31,0.69,0.69v0.03
			c0,0.38-0.31,0.69-0.69,0.69h-6.33C635.85,609.5,635.54,609.19,635.54,608.82z"/>
		<path class="st8" d="M632.76,602.42l-0.02-0.02c-0.27-0.27-0.27-0.7,0-0.97l4.48-4.48c0.27-0.27,0.7-0.27,0.97,0l0.02,0.02
			c0.27,0.27,0.27,0.7,0,0.97l-4.48,4.48C633.46,602.69,633.02,602.69,632.76,602.42z"/>
	</g>
	<g>
		<g>
			<g>
				<defs>
					<rect id="SVGID_1_" x="314" y="597.98" width="44" height="21"/>
				</defs>
				<clipPath id="SVGID_2_">
					<use xlink:href="#SVGID_1_"  style="overflow:visible;"/>
				</clipPath>
				<g class="st9">
					<circle class="st8" cx="335.26" cy="617.18" r="6.3"/>
					<path class="st8" d="M335.27,608.42h-0.03c-0.38,0-0.69-0.31-0.69-0.69v-6.33c0-0.38,0.31-0.69,0.69-0.69h0.03
						c0.38,0,0.69,0.31,0.69,0.69v6.33C335.96,608.11,335.65,608.42,335.27,608.42z"/>
					<path class="st8" d="M328.88,611.2l-0.02,0.02c-0.27,0.27-0.7,0.27-0.97,0l-4.48-4.48c-0.27-0.27-0.27-0.7,0-0.97l0.02-0.02
						c0.27-0.27,0.7-0.27,0.97,0l4.48,4.48C329.15,610.5,329.15,610.94,328.88,611.2z"/>
					<path class="st8" d="M326.32,617.69v0.03c0,0.38-0.31,0.69-0.69,0.69h-6.33c-0.38,0-0.69-0.31-0.69-0.69v-0.03
						c0-0.38,0.31-0.69,0.69-0.69h6.33C326.02,617,326.32,617.31,326.32,617.69z"/>
					<path class="st8" d="M329.11,624.08l0.02,0.02c0.27,0.27,0.27,0.7,0,0.97l-4.48,4.48c-0.27,0.27-0.7,0.27-0.97,0l-0.02-0.02
						c-0.27-0.27-0.27-0.7,0-0.97l4.48-4.48C328.4,623.82,328.84,623.82,329.11,624.08z"/>
					<path class="st8" d="M335.59,626.64h0.03c0.38,0,0.69,0.31,0.69,0.69v6.33c0,0.38-0.31,0.69-0.69,0.69h-0.03
						c-0.38,0-0.69-0.31-0.69-0.69v-6.33C334.91,626.94,335.22,626.64,335.59,626.64z"/>
					<path class="st8" d="M341.99,623.85l0.02-0.02c0.27-0.27,0.7-0.27,0.97,0l4.48,4.48c0.27,0.27,0.27,0.7,0,0.97l-0.02,0.02
						c-0.27,0.27-0.7,0.27-0.97,0l-4.48-4.48C341.72,624.56,341.72,624.12,341.99,623.85z"/>
					<path class="st8" d="M344.54,617.37v-0.03c0-0.38,0.31-0.69,0.69-0.69h6.33c0.38,0,0.69,0.31,0.69,0.69v0.03
						c0,0.38-0.31,0.69-0.69,0.69h-6.33C344.85,618.05,344.54,617.74,344.54,617.37z"/>
					<path class="st8" d="M341.76,610.97l-0.02-0.02c-0.27-0.27-0.27-0.7,0-0.97l4.48-4.48c0.27-0.27,0.7-0.27,0.97,0l0.02,0.02
						c0.27,0.27,0.27,0.7,0,0.97l-4.48,4.48C342.46,611.24,342.02,611.24,341.76,610.97z"/>
				</g>
			</g>
			<line class="st10" x1="315.93" y1="619.98" x2="354" y2="619.98"/>
		</g>
		<g>
			<g>
				<line class="st11" x1="335.37" y1="597" x2="335.37" y2="591.52"/>
				<g>
					<path d="M335.37,588.5c0.53,1.42,1.43,3.18,2.38,4.27l-2.38-0.86l-2.38,0.86C333.94,591.68,334.84,589.92,335.37,588.5z"/>
				</g>
			</g>
		</g>
	</g>
	<g>
		<g>
			<g>
				<defs>
					<rect id="SVGID_3_" x="856" y="606.61" width="44" height="21"/>
				</defs>
				<clipPath id="SVGID_4_">
					<use xlink:href="#SVGID_3_"  style="overflow:visible;"/>
				</clipPath>
				<g class="st12">
					<circle class="st8" cx="877.26" cy="608.41" r="6.3"/>
					<path class="st8" d="M877.27,617.16h-0.03c-0.38,0-0.69,0.31-0.69,0.69v6.33c0,0.38,0.31,0.69,0.69,0.69h0.03
						c0.38,0,0.69-0.31,0.69-0.69v-6.33C877.96,617.47,877.65,617.16,877.27,617.16z"/>
					<path class="st8" d="M870.88,614.38l-0.02-0.02c-0.27-0.27-0.7-0.27-0.97,0l-4.48,4.48c-0.27,0.27-0.27,0.7,0,0.97l0.02,0.02
						c0.27,0.27,0.7,0.27,0.97,0l4.48-4.48C871.15,615.09,871.15,614.65,870.88,614.38z"/>
					<path class="st8" d="M868.32,607.89v-0.03c0-0.38-0.31-0.69-0.69-0.69h-6.33c-0.38,0-0.69,0.31-0.69,0.69v0.03
						c0,0.38,0.31,0.69,0.69,0.69h6.33C868.02,608.58,868.32,608.27,868.32,607.89z"/>
					<path class="st8" d="M871.11,601.5l0.02-0.02c0.27-0.27,0.27-0.7,0-0.97l-4.48-4.48c-0.27-0.27-0.7-0.27-0.97,0l-0.02,0.02
						c-0.27,0.27-0.27,0.7,0,0.97l4.48,4.48C870.4,601.77,870.84,601.77,871.11,601.5z"/>
					<path class="st8" d="M877.59,598.95h0.03c0.38,0,0.69-0.31,0.69-0.69v-6.33c0-0.38-0.31-0.69-0.69-0.69h-0.03
						c-0.38,0-0.69,0.31-0.69,0.69v6.33C876.91,598.64,877.22,598.95,877.59,598.95z"/>
					<path class="st8" d="M883.99,601.73l0.02,0.02c0.27,0.27,0.7,0.27,0.97,0l4.48-4.48c0.27-0.27,0.27-0.7,0-0.97l-0.02-0.02
						c-0.27-0.27-0.7-0.27-0.97,0l-4.48,4.48C883.72,601.03,883.72,601.46,883.99,601.73z"/>
					<path class="st8" d="M886.54,608.22v0.03c0,0.38,0.31,0.69,0.69,0.69h6.33c0.38,0,0.69-0.31,0.69-0.69v-0.03
						c0-0.38-0.31-0.69-0.69-0.69h-6.33C886.85,607.53,886.54,607.84,886.54,608.22z"/>
					<path class="st8" d="M883.76,614.61l-0.02,0.02c-0.27,0.27-0.27,0.7,0,0.97l4.48,4.48c0.27,0.27,0.7,0.27,0.97,0l0.02-0.02
						c0.27-0.27,0.27-0.7,0-0.97l-4.48-4.48C884.46,614.34,884.02,614.34,883.76,614.61z"/>
				</g>
			</g>
			<line class="st10" x1="857.93" y1="605.61" x2="896" y2="605.61"/>
		</g>
		<g>
			<g>
				<line class="st11" x1="877.37" y1="590.35" x2="877.37" y2="599.83"/>
				<g>
					<path d="M877.37,602.85c-0.53-1.42-1.43-3.18-2.38-4.27l2.38,0.86l2.38-0.86C878.79,599.67,877.89,601.43,877.37,602.85z"/>
				</g>
			</g>
		</g>
	</g>
</g>
<g id="heat_x5F_island_x5F_chart3_x5F_1991line">
	<g>
		<g>
			<polyline class="st13" points="1081.93,306.51 1040.46,298.75 998.99,292.39 957.53,285.24 916.06,275.88 874.59,262.84 
				833.12,248.75 791.66,233.41 750.19,212.2 708.72,192.41 667.25,176.56 625.79,171.15 584.32,178.89 542.85,201.56 
				501.38,235.57 459.92,278.35 418.45,320.45 376.98,346.36 335.51,348.24 294.05,341.91 252.58,336.94 211.11,330.32 
				169.64,322.61 128.18,315.26 			"/>
		</g>
	</g>
</g>
<g id="heat_x5F_island_x5F_chart3_x5F_1981line">
	<g>
		<g>
			<polyline class="st13" points="1081.93,302.29 1040.46,293.6 998.99,286.22 957.53,277.53 916.06,266.6 874.59,249.95 
				833.12,230.88 791.66,212.39 750.19,189.7 708.72,169.27 667.25,159.56 625.79,161.46 584.32,176.98 542.85,204.85 
				501.38,245.26 459.92,296.66 418.45,338.01 376.98,350.51 335.51,347.46 294.05,341.66 252.58,335.61 211.11,327.63 
				169.64,319.5 128.18,310.95 			"/>
		</g>
	</g>
</g>
<g id="heat_x5F_island_x5F_chart3_x5F_1971line">
	<g>
		<g>
			<polyline class="st14" points="1081.93,325.83 1040.46,316.55 998.99,306.68 957.53,294.72 916.06,279.95 874.59,257.18 
				833.12,231.39 791.66,210.73 750.19,194.14 708.72,180.16 667.25,173.71 625.79,177.79 584.32,190.75 542.85,216.49 
				501.38,257.62 459.92,316.87 418.45,359.31 376.98,374.84 335.51,373.72 294.05,368.15 252.58,361.75 211.11,353.78 
				169.64,344.75 128.18,336 			"/>
		</g>
	</g>
</g>
<g id="heat_x5F_island_x5F_chart3_x5F_2001line">
	<g>
		<g>
			<polyline class="st15" points="1081.93,285 1040.46,277.17 998.99,271.04 957.53,263.72 916.06,255.02 874.59,241.76 
				833.12,226.53 791.66,205.37 750.19,185.91 708.72,167.34 667.25,153.4 625.79,150.21 584.32,162.58 542.85,185.29 
				501.38,218.72 459.92,261.58 418.45,304.12 376.98,325.26 335.51,325.74 294.05,319.44 252.58,313.89 211.11,307.48 
				169.64,300.5 128.18,293.27 			"/>
		</g>
	</g>
</g>
<g id="heat_x5F_island_x5F_chart3_x5F_2001word">
	<text transform="matrix(1.046 0 0 1 1087.5986 279.1904)" class="st16 st3 st17">2001-2010年</text>
</g>
<g id="heat_x5F_island_x5F_chart3_x5F_1971word">
	<g>
		<text transform="matrix(1.046 0 0 1 1087.5986 338.5234)" class="st2 st3 st17">1971-1980年</text>
	</g>
</g>
<g id="heat_x5F_island_x5F_chart3_x5F_1981word">
	<text transform="matrix(1.046 0 0 1 1087.5986 298.7002)" class="st18 st3 st17">1981-1990年</text>
</g>
<g id="heat_x5F_island_x5F_chart3_x5F_1991word">
	<text transform="matrix(1.046 0 0 1 1087.5986 318.3623)" class="st18 st3 st17">1991-2000年</text>
</g>
<g id="heat_x5F_island_x5F_chart3_x5F_05">
	<circle class="st16" cx="336.1" cy="325.5" r="6"/>
	<circle class="st2" cx="336.1" cy="374.5" r="6"/>
	<text transform="matrix(1.1018 0 0 1 315.6631 406.4883)" class="st2 st19 st4">25.6</text>
	<text transform="matrix(1.046 0 0 1 316.4766 311.4883)" class="st16 st19 st4">27.3</text>
	<g>
		<g>
			<line class="st20" x1="336.1" y1="332.5" x2="336.1" y2="334"/>
			<line class="st21" x1="336.1" y1="336.37" x2="336.1" y2="347.04"/>
			<line class="st22" x1="336.1" y1="348.22" x2="336.1" y2="364.81"/>
			<line class="st20" x1="336.1" y1="366" x2="336.1" y2="367.5"/>
		</g>
	</g>
</g>
<g id="heat_x5F_island_x5F_chart3_x5F_05_x5F_word">
	<path class="st16" d="M318.81,273.54h-71.63c-2.86,0-5.19-2.32-5.19-5.19v-25.71c0-2.86,2.32-5.19,5.19-5.19h71.63
		c2.86,0,5.19,2.32,5.19,5.19v25.71C324,271.22,321.68,273.54,318.81,273.54z"/>
	<text transform="matrix(1 0 0 1 248.666 261.7598)" class="st23 st24 st25">上升2度</text>
</g>
<g id="heat_x5F_island_x5F_chart3_x5F_12">
	<circle class="st16" cx="626" cy="150.5" r="6"/>
	<circle class="st2" cx="626" cy="177.5" r="6"/>
	<text transform="matrix(1.1018 0 0 1 607.2561 209.4883)" class="st2 st19 st4">32.3</text>
	<text transform="matrix(1.046 0 0 1 608.0696 137.4883)" class="st16 st19 st4">33.2</text>
	<line class="st26" x1="625.5" y1="157.5" x2="625.5" y2="170.5"/>
	<path class="st16" d="M794.48,149.18H683.85c-2.86,0-5.19-2.32-5.19-5.19v-25.71c0-2.86,2.32-5.19,5.19-5.19h110.63
		c2.86,0,5.19,2.32,5.19,5.19V144C799.66,146.86,797.34,149.18,794.48,149.18z"/>
	<text transform="matrix(1 0 0 1 686.0034 137.1172)" class="st23 st24 st25">上升1度左右</text>
</g>
</svg>
